<?xml version="1.0" standalone="no"?>
<svg xmlns="http://www.w3.org/2000/svg" viewBox="0 0 171.168 29" width="171.168" height="29"><g fill="#FFFFFF" color="#FFFFFF" transform="translate(0, 0) scale(0.6041667)"><svg width="48.0" height="48.0" x="0.0" y="0.0" viewBox="0 0 48 48"><path fill="#FFF" fill-rule="nonzero" d="M24 .21L.21 24 24 47.79 47.79 24 24 .21zM5.82 24L24 5.82l7.69 7.69-2.8 2.8L24 11.43 11.43 24l4.88 4.89-2.8 2.8L5.82 24zm25.15 0L24 30.97 17.03 24 24 17.03 30.97 24zM16.31 34.49l2.8-2.8L24 36.57 36.57 24l-4.89-4.89 2.8-2.8 7.7 7.69L24 42.18l-7.69-7.69z"></path></svg></g><line x1="41" y1="1" x2="41" y2="28" stroke="#FFF" stroke-linecap="round"></line><path fill="#FFF" fill-rule="nonzero" d="M4.70 17.21L4.70 17.21Q3.41 17.21 2.34 16.55Q1.27 15.89 0.64 14.80Q0 13.70 0 12.38L0 12.38L0 11.28Q0 11.16 0.12 11.16L0.12 11.16L2.81 11.16Q2.90 11.16 2.90 11.28L2.90 11.28L2.90 12.38Q2.90 13.18 3.43 13.74Q3.96 14.30 4.70 14.30L4.70 14.30Q5.45 14.30 5.98 13.73Q6.50 13.15 6.50 12.38L6.50 12.38Q6.50 11.50 5.35 10.85L5.35 10.85Q4.97 10.63 4.15 10.18Q3.34 9.72 2.62 9.31L2.62 9.31Q1.30 8.54 0.66 7.38Q0.02 6.22 0.02 4.75L0.02 4.75Q0.02 3.41 0.67 2.34Q1.32 1.27 2.39 0.65Q3.46 0.02 4.70 0.02L4.70 0.02Q5.98 0.02 7.04 0.66Q8.11 1.30 8.75 2.36Q9.38 3.43 9.38 4.75L9.38 4.75L9.38 6.72Q9.38 6.82 9.29 6.82L9.29 6.82L6.60 6.82Q6.50 6.82 6.50 6.72L6.50 6.72L6.48 4.75Q6.48 3.91 5.95 3.38Q5.42 2.86 4.70 2.86L4.70 2.86Q3.96 2.86 3.43 3.42Q2.90 3.98 2.90 4.75L2.90 4.75Q2.90 5.54 3.24 6.07Q3.58 6.60 4.46 7.08L4.46 7.08Q4.58 7.15 4.93 7.33Q5.28 7.51 5.69 7.74Q6.10 7.97 6.42 8.14Q6.74 8.30 6.82 8.35L6.82 8.35Q8.02 9.02 8.71 10.00Q9.41 10.97 9.41 12.38L9.41 12.38Q9.41 13.75 8.77 14.84Q8.14 15.94 7.07 16.57Q6 17.21 4.70 17.21ZM13.92 16.97L11.21 16.97Q11.09 16.97 11.09 16.85L11.09 16.85L11.11 0.36Q11.11 0.26 11.21 0.26L11.21 0.26L13.90 0.26Q13.99 0.26 13.99 0.36L13.99 0.36L14.02 16.85Q14.02 16.97 13.92 16.97L13.92 16.97ZM18.94 16.97L16.22 16.97Q16.13 16.97 16.13 16.85L16.13 16.85L16.18 0.36Q16.18 0.26 16.27 0.26L16.27 0.26L19.20 0.26Q19.30 0.26 19.37 0.36L19.37 0.36L21.55 3.53L23.74 0.36Q23.81 0.26 23.90 0.26L23.90 0.26L26.86 0.26Q26.95 0.26 26.95 0.36L26.95 0.36L27 16.85Q27 16.97 26.90 16.97L26.90 16.97L24.19 16.97Q24.10 16.97 24.10 16.85L24.10 16.85L24.07 4.61L21.55 8.26L19.06 4.61L19.03 16.85Q19.03 16.97 18.94 16.97L18.94 16.97ZM31.82 16.97L29.14 16.97Q29.02 16.97 29.02 16.85L29.02 16.85L29.06 0.36Q29.06 0.26 29.16 0.26L29.16 0.26L33.77 0.26Q35.98 0.26 37.26 1.61Q38.54 2.95 38.54 5.26L38.54 5.26Q38.54 6.96 37.87 8.21Q37.20 9.46 36.12 10.13Q35.04 10.80 33.77 10.80L33.77 10.80L31.94 10.80L31.94 16.85Q31.94 16.97 31.82 16.97L31.82 16.97ZM31.94 3.14L31.94 7.90L33.77 7.90Q34.54 7.90 35.10 7.16Q35.66 6.43 35.66 5.26L35.66 5.26Q35.66 4.32 35.16 3.72Q34.66 3.12 33.77 3.12L33.77 3.12L31.94 3.14ZM48.02 16.97L40.27 16.97Q40.18 16.97 40.18 16.85L40.18 16.85L40.20 0.38Q40.20 0.26 40.32 0.26L40.32 0.26L42.98 0.26Q43.10 0.26 43.10 0.38L43.10 0.38L43.08 14.02L48.02 14.02Q48.14 14.02 48.14 14.14L48.14 14.14L48.14 16.85Q48.14 16.97 48.02 16.97L48.02 16.97ZM57.55 16.97L49.80 16.97Q49.70 16.97 49.70 16.85L49.70 16.85L49.73 0.36Q49.73 0.26 49.82 0.26L49.82 0.26L57.53 0.26Q57.62 0.26 57.62 0.38L57.62 0.38L57.62 3.07Q57.62 3.17 57.53 3.17L57.53 3.17L52.61 3.17L52.61 6.91L57.53 6.91Q57.62 6.91 57.62 7.01L57.62 7.01L57.65 9.72Q57.65 9.82 57.55 9.82L57.55 9.82L52.61 9.82L52.61 14.02L57.55 14.02Q57.65 14.02 57.65 14.14L57.65 14.14L57.65 16.87Q57.65 16.97 57.55 16.97L57.55 16.97ZM63.82 17.21L63.82 17.21Q62.50 17.21 61.43 16.55Q60.36 15.89 59.74 14.78Q59.11 13.68 59.11 12.31L59.11 12.31L59.14 4.82Q59.14 3.50 59.75 2.41Q60.36 1.32 61.43 0.66Q62.50 0 63.82 0L63.82 0Q65.14 0 66.19 0.65Q67.25 1.30 67.87 2.39Q68.50 3.48 68.50 4.82L68.50 4.82L68.50 5.93Q68.50 6.02 68.40 6.02L68.40 6.02L65.71 6.02Q65.62 6.02 65.62 5.93L65.62 5.93L65.62 4.82Q65.62 4.03 65.10 3.46Q64.58 2.88 63.82 2.88L63.82 2.88Q62.95 2.88 62.50 3.47Q62.04 4.06 62.04 4.82L62.04 4.82L62.04 12.31Q62.04 13.20 62.56 13.75Q63.07 14.30 63.82 14.30L63.82 14.30Q64.58 14.30 65.10 13.69Q65.62 13.08 65.62 12.31L65.62 12.31L65.62 11.21Q65.62 11.11 65.71 11.11L65.71 11.11L68.42 11.11Q68.52 11.11 68.52 11.21L68.52 11.21L68.52 12.31Q68.52 13.68 67.88 14.78Q67.25 15.89 66.19 16.55Q65.14 17.21 63.82 17.21ZM73.08 16.97L70.37 16.97Q70.27 16.97 70.27 16.85L70.27 16.85L70.32 0.36Q70.32 0.26 70.42 0.26L70.42 0.26L75.26 0.26Q76.56 0.26 77.65 0.90Q78.74 1.54 79.39 2.60Q80.04 3.67 80.04 5.02L80.04 5.02Q80.04 5.90 79.78 6.61Q79.51 7.32 79.15 7.81Q78.79 8.30 78.50 8.54L78.50 8.54Q79.80 9.98 79.80 11.93L79.80 11.93L79.82 16.85Q79.82 16.97 79.70 16.97L79.70 16.97L76.99 16.97Q76.90 16.97 76.90 16.90L76.90 16.90L76.90 11.93Q76.90 11.06 76.28 10.43Q75.67 9.79 74.78 9.79L74.78 9.79L73.20 9.79L73.18 16.85Q73.18 16.97 73.08 16.97L73.08 16.97ZM73.20 3.14L73.20 6.91L75.26 6.91Q76.01 6.91 76.58 6.36Q77.16 5.81 77.16 5.02L77.16 5.02Q77.16 4.25 76.60 3.70Q76.03 3.14 75.26 3.14L75.26 3.14L73.20 3.14ZM86.11 16.97L83.35 16.97Q83.28 16.97 83.28 16.87L83.28 16.87L83.30 10.06L80.09 0.36Q80.06 0.26 80.16 0.26L80.16 0.26L82.82 0.26Q82.94 0.26 82.97 0.36L82.97 0.36L84.74 6.82L86.54 0.36Q86.57 0.26 86.66 0.26L86.66 0.26L89.35 0.26Q89.45 0.26 89.42 0.36L89.42 0.36L86.18 9.96L86.21 16.87Q86.21 16.97 86.11 16.97L86.11 16.97ZM93.55 16.97L90.86 16.97Q90.74 16.97 90.74 16.85L90.74 16.85L90.79 0.36Q90.79 0.26 90.89 0.26L90.89 0.26L95.50 0.26Q97.70 0.26 98.99 1.61Q100.27 2.95 100.27 5.26L100.27 5.26Q100.27 6.96 99.60 8.21Q98.93 9.46 97.85 10.13Q96.77 10.80 95.50 10.80L95.50 10.80L93.67 10.80L93.67 16.85Q93.67 16.97 93.55 16.97L93.55 16.97ZM93.67 3.14L93.67 7.90L95.50 7.90Q96.26 7.90 96.83 7.16Q97.39 6.43 97.39 5.26L97.39 5.26Q97.39 4.32 96.89 3.72Q96.38 3.12 95.50 3.12L95.50 3.12L93.67 3.14ZM106.78 16.97L104.06 16.97Q103.97 16.97 103.97 16.85L103.97 16.85L103.97 3.17L100.85 3.17Q100.73 3.17 100.73 3.05L100.73 3.05L100.75 0.36Q100.75 0.26 100.85 0.26L100.85 0.26L109.97 0.26Q110.09 0.26 110.09 0.36L110.09 0.36L110.09 3.05Q110.09 3.17 109.99 3.17L109.99 3.17L106.85 3.17L106.87 16.85Q106.87 16.97 106.78 16.97L106.78 16.97ZM115.46 17.21L115.46 17.21Q114.17 17.21 113.10 16.55Q112.03 15.89 111.38 14.80Q110.74 13.70 110.74 12.38L110.74 12.38L110.76 4.78Q110.76 3.46 111.40 2.38Q112.03 1.30 113.11 0.65Q114.19 0 115.46 0L115.46 0Q116.76 0 117.82 0.65Q118.87 1.30 119.51 2.38Q120.14 3.46 120.14 4.78L120.14 4.78L120.17 12.38Q120.17 13.70 119.53 14.80Q118.90 15.89 117.83 16.55Q116.76 17.21 115.46 17.21ZM115.46 14.30L115.46 14.30Q116.18 14.30 116.72 13.72Q117.26 13.13 117.26 12.38L117.26 12.38L117.24 4.78Q117.24 3.98 116.74 3.43Q116.23 2.88 115.46 2.88L115.46 2.88Q114.72 2.88 114.19 3.42Q113.66 3.96 113.66 4.78L113.66 4.78L113.66 12.38Q113.66 13.18 114.19 13.74Q114.72 14.30 115.46 14.30Z" transform="translate(51, 5.897)"></path></svg>